<svg width="20" height="20" viewBox="0 0 20 20" fill="none" xmlns="http://www.w3.org/2000/svg">
<g clip-path="url(#clip0_0_149)">
<path d="M18.4375 0H1.5625C0.699219 0 0 0.699219 0 1.5625V18.4375C0 19.3008 0.699219 20 1.5625 20H18.4375C19.3008 20 20 19.3008 20 18.4375V1.5625C20 0.699219 19.3008 0 18.4375 0ZM12.207 8.30469L12.0938 9.80078H10.5586V14.9961H8.62109V9.80078H7.58594V8.30469H8.62109V7.30078C8.62109 6.85937 8.63281 6.17578 8.95312 5.75C9.29297 5.30078 9.75781 4.99609 10.5586 4.99609C11.8633 4.99609 12.4102 5.18359 12.4102 5.18359L12.1523 6.71484C12.1523 6.71484 11.7227 6.58984 11.3203 6.58984C10.918 6.58984 10.5586 6.73438 10.5586 7.13672V8.30469H12.207Z" fill="#8296AA"/>
</g>
<defs>
<clipPath id="clip0_0_149">
<rect width="20" height="20" fill="white"/>
</clipPath>
</defs>
</svg>
