<svg width="38" height="38" viewBox="0 0 38 38" fill="none" xmlns="http://www.w3.org/2000/svg">
<path d="M25.2149 24.2756L27.8133 26.8727C27.9344 26.9981 28.0015 27.1661 28 27.3406C27.9985 27.515 27.9285 27.6818 27.8052 27.8052C27.6818 27.9285 27.515 27.9985 27.3406 28C27.1661 28.0015 26.9981 27.9344 26.8727 27.8133L24.2743 25.2149C22.5764 26.6697 20.381 27.4102 18.1488 27.2812C15.9166 27.1522 13.8211 26.1636 12.3021 24.5229C10.7831 22.8822 9.95857 20.7169 10.0016 18.4814C10.0446 16.2459 10.9519 14.1139 12.5329 12.5329C14.1139 10.9519 16.2459 10.0446 18.4814 10.0016C20.7169 9.95857 22.8822 10.7831 24.5229 12.3021C26.1636 13.8211 27.1522 15.9166 27.2812 18.1488C27.4102 20.381 26.6697 22.5764 25.2149 24.2743V24.2756ZM18.6479 25.9653C20.5886 25.9653 22.4498 25.1944 23.8221 23.8221C25.1944 22.4498 25.9653 20.5886 25.9653 18.6479C25.9653 16.7072 25.1944 14.846 23.8221 13.4738C22.4498 12.1015 20.5886 11.3305 18.6479 11.3305C16.7072 11.3305 14.846 12.1015 13.4738 13.4738C12.1015 14.846 11.3305 16.7072 11.3305 18.6479C11.3305 20.5886 12.1015 22.4498 13.4738 23.8221C14.846 25.1944 16.7072 25.9653 18.6479 25.9653Z" fill="white"/>
</svg>
