<svg width="20" height="20" viewBox="0 0 20 20" fill="none" xmlns="http://www.w3.org/2000/svg">
<path d="M18 0C19.1046 0 20 0.89543 20 2V18C20 19.1046 19.1046 20 18 20H2C0.89543 20 0 19.1046 0 18V2C0 0.89543 0.89543 0 2 0H18ZM12.6924 4.5C11.1062 4.50005 9.82031 5.74417 9.82031 7.27734C9.82034 7.4947 9.84615 7.70689 9.89453 7.90918C7.50778 7.79355 5.39174 6.68822 3.97461 5.00781C3.72807 5.41799 3.58596 5.89472 3.58594 6.4043C3.58594 7.36743 4.09277 8.21812 4.86328 8.71582C4.39278 8.70121 3.94957 8.57585 3.5625 8.36816V8.40332C3.56265 9.74883 4.55217 10.8713 5.86621 11.126C5.62566 11.1894 5.37143 11.2236 5.10938 11.2236C4.92477 11.2236 4.74425 11.2056 4.56934 11.1738C4.93495 12.277 5.99622 13.0802 7.25293 13.1025C6.2703 13.8475 5.03161 14.292 3.68555 14.292C3.45403 14.292 3.22506 14.279 3 14.2529C4.2711 15.0405 5.78027 15.4999 7.40234 15.5C12.6855 15.5 15.5742 11.2684 15.5742 7.59863C15.5742 7.47839 15.5718 7.35846 15.5664 7.23926C16.1279 6.84727 16.6151 6.3582 17 5.80176C16.4848 6.02297 15.9314 6.17208 15.3506 6.23926C15.9438 5.89564 16.399 5.35169 16.6133 4.70312C16.0588 5.02114 15.4436 5.25199 14.7891 5.37695C14.2652 4.83708 13.5184 4.5 12.6924 4.5Z" fill="#8296AA"/>
</svg>
