<svg width="62" height="62" viewBox="0 0 62 62" fill="none" xmlns="http://www.w3.org/2000/svg">
<rect x="0.5" y="-0.5" width="61" height="61" rx="30.5" transform="matrix(-1 0 0 1 62 1)" stroke="white"/>
<path d="M31.25 43V19.6035L36.8232 25.1768C36.9209 25.2744 37.0791 25.2744 37.1768 25.1768C37.2744 25.0791 37.2744 24.9209 37.1768 24.8232L31.1768 18.8232L31.1377 18.791C31.1322 18.7874 31.1258 18.7854 31.1201 18.7822C31.0843 18.7624 31.0438 18.75 31 18.75C30.9565 18.75 30.9165 18.7627 30.8809 18.7822C30.8605 18.7934 30.8405 18.806 30.8232 18.8232L24.8232 24.8232L24.791 24.8623C24.7269 24.9593 24.7378 25.0913 24.8232 25.1768C24.9087 25.2622 25.0407 25.2731 25.1377 25.209L25.1768 25.1768L30.75 19.6035V43C30.75 43.1381 30.8619 43.25 31 43.25C31.1381 43.25 31.25 43.1381 31.25 43Z" fill="#D2AE6D" stroke="#D2AE6D" stroke-width="0.5" stroke-linecap="round" stroke-linejoin="round"/>
</svg>
