<svg width="71" height="71" viewBox="0 0 71 71" fill="none" xmlns="http://www.w3.org/2000/svg">
<rect width="50" height="50" rx="25" transform="matrix(-0.709997 -0.709997 -0.709997 0.709997 71 35.5)" fill="white"/>
<path d="M27.1562 44.1979L43.7676 27.5865V35.5005C43.7676 35.6391 43.88 35.7514 44.0186 35.7514C44.1572 35.7514 44.2696 35.6391 44.2696 35.5005V26.9805L44.2647 26.9299C44.2634 26.9234 44.2603 26.9174 44.2585 26.9112C44.2471 26.8717 44.2272 26.8341 44.1961 26.803C44.1652 26.7721 44.1278 26.7527 44.0886 26.7413C44.0663 26.7347 44.0431 26.7295 44.0186 26.7295H35.4986L35.448 26.7343C35.3336 26.7577 35.2476 26.8592 35.2476 26.9805C35.2476 27.1018 35.3336 27.2032 35.448 27.2266L35.4986 27.2315H43.4126L26.8012 43.8429C26.7031 43.941 26.7031 44.0999 26.8012 44.1979C26.8992 44.296 27.0581 44.296 27.1562 44.1979Z" fill="#02162B" stroke="#02162B" stroke-width="0.5" stroke-linecap="round" stroke-linejoin="round"/>
</svg>
