<svg width="10" height="18" viewBox="0 0 10 18" fill="none" xmlns="http://www.w3.org/2000/svg">
<path d="M0 15.607L4.30223 8.9552L4.56553 8.56025C5.12193 7.72613 5.5313 7.02751 5.7946 6.46439C6.05886 5.90127 6.19052 5.28241 6.19052 4.60973C6.19052 4.03892 6.08001 3.60361 5.86091 3.30379C5.64085 3.00397 5.32661 2.85406 4.91724 2.85406C4.30223 2.85406 3.87748 3.08757 3.64397 3.55556C3.40949 4.02451 3.29226 4.66835 3.29226 5.48709V6.30006H0V5.42175C0 3.75352 0.391111 2.43316 1.1743 1.4597C1.95652 0.486247 3.18271 0 4.85094 0C6.38751 0 7.55412 0.405526 8.35268 1.2185C9.14932 2.03051 9.54908 3.18271 9.54908 4.67508C9.54908 5.34871 9.44626 5.98583 9.24157 6.58547C9.03592 7.18511 8.79472 7.71941 8.517 8.18739C8.23929 8.65634 7.80685 9.32133 7.22163 10.1852L3.79772 15.3216H9.08782V17.9998H0V15.607Z" fill="white"/>
</svg>
