<svg width="70" height="30" viewBox="0 0 70 30" fill="none" xmlns="http://www.w3.org/2000/svg">
<path fill-rule="evenodd" clip-rule="evenodd" d="M3.31741 17.3526C3.33433 17.4241 3.33715 17.5002 3.32211 17.5763L1.06984 29.5173C1.01438 29.8106 0.732382 30.0033 0.440038 29.9478C0.146755 29.8924 -0.0459478 29.6104 0.00951288 29.318L2.26178 17.3771C2.27212 17.3244 2.28904 17.2746 2.31254 17.2295C2.0813 17.049 1.93371 16.7689 1.93371 16.4549V9.42268C1.93371 7.65734 3.28451 6.20972 5.00473 6.05368C5.06489 6.04616 5.12505 6.03864 5.19837 6.03864H10.7426C10.8102 6.03864 10.8713 6.04616 10.9287 6.05368C12.6527 6.20972 14.0025 7.65734 14.0025 9.42268V16.2218C14.1351 16.0422 14.3484 15.9257 14.5881 15.9257C14.8485 15.9257 15.0741 16.0629 15.2057 16.2678L15.2114 16.2641C15.2715 16.3139 16.2003 17.9758 16.5123 18.2832C16.8367 18.6122 17.1309 18.5756 17.1309 18.5756H19.5533C19.5533 18.5756 19.8447 18.6122 20.1709 18.2832C20.4783 17.9758 21.4117 16.3139 21.47 16.2641L21.4784 16.2678C21.6063 16.0629 21.8319 15.9257 22.0951 15.9257C22.3244 15.9257 22.5284 16.031 22.6619 16.1955C22.6722 15.9755 22.7211 15.8129 22.7211 15.8129L24.7168 9.31176C24.7168 9.31176 25.4331 7.43267 27.0123 7.43267H32.1024C33.6835 7.43267 34.3951 9.31176 34.3951 9.31176L36.3927 15.8129C36.3927 15.8129 36.7499 17.0039 35.7375 17.3019C34.7326 17.5998 34.4261 16.4361 34.4261 16.4361L32.8168 11.0104C32.8168 11.0104 32.7285 10.593 32.4155 10.6832C32.1024 10.7735 32.2218 11.22 32.2218 11.22L35.0212 21.3881H32.4155V28.6704C32.4155 29.3594 31.8571 29.9196 31.1634 29.9196C30.4687 29.9196 29.9122 29.3594 29.9122 28.6704V21.3881H29.2006V28.6704C29.2006 29.3594 28.6423 29.9196 27.9504 29.9196C27.2604 29.9196 26.6974 29.3594 26.6974 28.6704V21.3881H24.0917L26.8929 11.22C26.8929 11.22 27.0123 10.7735 26.6974 10.6832C26.3844 10.593 26.2969 11.0104 26.2969 11.0104L24.6857 16.4361C24.6857 16.4361 24.3812 17.5998 23.3754 17.3019C23.0605 17.2097 22.879 17.0302 22.7766 16.8281C22.7108 17.0105 22.5961 17.253 22.5961 17.253L20.733 20.621C20.733 20.621 20.6108 20.872 20.6108 21.1014V21.797L21.6777 25.7244H20.6108V28.9345C20.6108 29.4816 20.1681 29.9206 19.6238 29.9206C19.0795 29.9206 18.6377 29.4816 18.6377 28.9345V25.8437C18.6377 25.8437 18.6443 25.792 18.6387 25.7244H18.0427C18.0361 25.792 18.0427 25.8437 18.0427 25.8437V28.9345C18.0427 29.4816 17.6037 29.9206 17.0604 29.9206C16.5152 29.9206 16.0743 29.4816 16.0743 28.9345H16.0705V25.7244H15.0083L16.0705 21.8186V21.1014C16.0705 20.872 15.9474 20.621 15.9474 20.621L13.9311 16.9729C13.9311 16.9729 13.9189 16.9353 13.9038 16.8836C13.744 17.2107 13.4084 17.4382 13.0193 17.4382C12.4759 17.4382 12.0351 16.9964 12.0351 16.4549V10.4153C12.0351 10.1888 11.973 9.88234 11.5566 9.88234C11.2727 9.88234 11.2079 10.186 11.2003 10.3787V28.4814C11.2003 29.2598 10.5696 29.8943 9.78657 29.8943C9.00542 29.8943 8.37467 29.2598 8.37467 28.4814V18.0492C8.37185 17.9345 8.32767 17.6356 7.96765 17.6356C7.60762 17.6356 7.56908 17.9345 7.56344 18.0492V28.4814C7.56344 29.2598 6.93175 29.8943 6.1506 29.8943C5.36758 29.8943 4.73871 29.2598 4.73871 28.4814V10.3787C4.72649 10.186 4.66727 9.88234 4.3815 9.88234C3.96696 9.88234 3.90116 10.1888 3.90116 10.4153V16.4549C3.90116 16.8544 3.66145 17.1994 3.31741 17.3526ZM61.4317 2.53803C61.4317 1.13553 62.5691 0 63.9707 0C65.3694 0 66.5031 1.13553 66.5031 2.53803C66.5031 3.93959 65.3694 5.07512 63.9707 5.07512C62.5691 5.07512 61.4317 3.93959 61.4317 2.53803ZM66.9317 6.05368C68.6529 6.20972 70.0018 7.65734 70.0018 9.42268V16.4549C70.0018 16.9964 69.5619 17.4382 69.0195 17.4382C68.4743 17.4382 68.0353 16.9964 68.0353 16.4549V10.4153C68.0353 10.1888 67.9695 9.88234 67.5559 9.88234C67.2692 9.88234 67.21 10.186 67.1987 10.3787V28.4814C67.1987 29.2598 66.5689 29.8943 65.7868 29.8943C65.0047 29.8943 64.3712 29.2598 64.3712 28.4814V18.0492C64.3674 17.9345 64.3289 17.6356 63.9707 17.6356H63.9688C63.6088 17.6356 63.5646 17.9345 63.5609 18.0492V28.4814C63.5609 29.2598 62.9311 29.8943 62.149 29.8943C61.3659 29.8943 60.7361 29.2598 60.7361 28.4814V10.3787C60.7267 10.186 60.6647 9.88234 60.3808 9.88234C59.9644 9.88234 59.9014 10.1888 59.9014 10.4153V16.4549C59.9014 16.9964 59.4605 17.4382 58.9172 17.4382C58.3729 17.4382 57.9349 16.9964 57.9349 16.4549V9.42268C57.9349 7.65734 59.2847 6.20972 61.0087 6.05368C61.0651 6.04616 61.1272 6.03864 61.1949 6.03864H66.739C66.8114 6.03864 66.8706 6.04616 66.9317 6.05368ZM46.3464 3.87003C46.3464 5.19733 45.2739 6.2727 43.9466 6.2727C42.6183 6.2727 41.543 5.19733 41.543 3.87003C41.543 2.54367 42.6183 1.46548 43.9466 1.46548C45.2739 1.46548 46.3464 2.54367 46.3464 3.87003ZM39.1055 9.31176C39.1055 9.31176 39.8209 7.43267 41.4001 7.43267H46.4912C48.0714 7.43267 48.7848 9.31176 48.7848 9.31176L50.7814 15.8129C50.7814 15.8129 51.1395 17.0039 50.1262 17.3019C49.1213 17.5998 48.8158 16.4361 48.8158 16.4361L47.2056 11.0104C47.2056 11.0104 47.1182 10.593 46.8042 10.6832C46.4912 10.7735 46.6087 11.22 46.6087 11.22L49.409 21.3881H46.8042V28.6704C46.8042 29.3594 46.244 29.9196 45.5502 29.9196C44.8575 29.9196 44.3 29.3594 44.3 28.6704V21.3881H43.5884V28.6704C43.5884 29.3594 43.0301 29.9196 42.3392 29.9196C41.6473 29.9196 41.0861 29.3594 41.0861 28.6704V21.3881H38.4804L41.2826 11.22C41.2826 11.22 41.4001 10.7735 41.0861 10.6832C40.7731 10.593 40.6857 11.0104 40.6857 11.0104L39.0754 16.4361C39.0754 16.4361 38.7699 17.5998 37.7641 17.3019C36.7527 17.0039 37.1089 15.8129 37.1089 15.8129L39.1055 9.31176ZM31.9586 3.87003C31.9586 5.19733 30.8842 6.2727 29.5578 6.2727C28.2296 6.2727 27.1552 5.19733 27.1552 3.87003C27.1552 2.54367 28.2296 1.46548 29.5578 1.46548C30.8842 1.46548 31.9586 2.54367 31.9586 3.87003ZM54.4136 17.315C53.3072 17.315 52.4142 16.4201 52.4142 15.3137C52.4142 14.2083 53.3072 13.3153 54.4136 13.3153C55.52 13.3153 56.4121 14.2083 56.4121 15.3137C56.4121 16.4201 55.52 17.315 54.4136 17.315ZM49.6196 23.5266L49.612 23.5247C49.6196 23.442 50.1742 22.0649 50.3387 21.6381C51.4883 18.6818 51.8173 18.1469 52.8588 18.115C53.9022 18.0839 54.408 18.1037 54.408 18.1037C54.408 18.1037 54.8799 18.0858 55.6704 18.1037C56.461 18.1263 57.2816 18.115 57.7328 19.431C57.8794 19.8606 59.1287 22.9241 59.1531 23.0002L59.1456 23.0077C59.2923 23.2127 59.3327 23.4843 59.2274 23.7372C59.0648 24.1254 58.6202 24.3087 58.2357 24.147C58.122 24.101 57.7525 23.0397 57.7525 23.0397L56.8999 20.6662C56.8999 20.6662 56.774 20.4951 56.774 20.7348V28.895C56.774 29.4628 56.3115 29.9206 55.7456 29.9206C55.1778 29.9206 54.7182 29.4628 54.7182 28.895V25.6745C54.7182 25.6745 54.7746 25.2196 54.408 25.2196C54.0404 25.2196 54.0996 25.6745 54.0996 25.6745V28.895C54.0996 29.4628 53.6419 29.9206 53.0741 29.9206C52.5054 29.9206 52.0485 29.4628 52.0485 28.895H52.0438V20.7348C52.0438 20.4951 51.8549 20.7273 51.8549 20.7273L50.7682 24.1931C50.7682 24.1931 50.4618 24.7251 49.911 24.4723C49.4419 24.2561 49.5218 23.7607 49.6196 23.5266ZM10.5047 2.53803C10.5047 3.93959 9.36638 5.07512 7.96577 5.07512C6.56609 5.07512 5.43244 3.93959 5.43244 2.53803C5.43244 1.13553 6.56609 0 7.96577 0C9.36638 0 10.5047 1.13553 10.5047 2.53803ZM18.3407 17.315C17.2352 17.315 16.3422 16.4201 16.3422 15.3137C16.3422 14.2083 17.2352 13.3153 18.3407 13.3153C19.4471 13.3153 20.3391 14.2083 20.3391 15.3137C20.3391 16.4201 19.4471 17.315 18.3407 17.315Z" fill="white"/>
</svg>
