<svg width="40" height="40" viewBox="0 0 40 40" fill="none" xmlns="http://www.w3.org/2000/svg">
<path fill-rule="evenodd" clip-rule="evenodd" d="M20 40C31.0457 40 40 31.0457 40 20C40 8.9543 31.0457 0 20 0C8.9543 0 0 8.9543 0 20C0 31.0457 8.9543 40 20 40Z" fill="#8C7449"/>
<path d="M26 11.5H30V26.5C30 27.2956 29.6839 28.0587 29.1213 28.6213C28.5587 29.1839 27.7956 29.5 27 29.5H13C12.2044 29.5 11.4413 29.1839 10.8787 28.6213C10.3161 28.0587 10 27.2956 10 26.5V9.5H26V11.5ZM26 13.5V26.5C26 26.7652 26.1054 27.0196 26.2929 27.2071C26.4804 27.3946 26.7348 27.5 27 27.5C27.2652 27.5 27.5196 27.3946 27.7071 27.2071C27.8946 27.0196 28 26.7652 28 26.5V13.5H26ZM12 11.5V26.5C12 26.7652 12.1054 27.0196 12.2929 27.2071C12.4804 27.3946 12.7348 27.5 13 27.5H24.17C24.0566 27.1788 23.9991 26.8406 24 26.5V11.5H12ZM14 19.5H22V21.5H14V19.5ZM14 23.5H22V25.5H14V23.5ZM14 13.5H22V17.5H14V13.5Z" fill="white"/>
</svg>
