<svg width="40" height="41" viewBox="0 0 40 41" fill="none" xmlns="http://www.w3.org/2000/svg">
<path fill-rule="evenodd" clip-rule="evenodd" d="M20 40C31.0457 40 40 31.0457 40 20C40 8.9543 31.0457 0 20 0C8.9543 0 0 8.9543 0 20C0 31.0457 8.9543 40 20 40Z" fill="#E7EAE9" fill-opacity="0.5"/>
<path d="M29.9892 12.8664H25.7058V11.0102C25.7101 10.7751 25.6313 10.5459 25.4833 10.3631C25.3354 10.1803 25.1276 10.0555 24.8967 10.0108C24.7603 9.99007 24.621 9.99927 24.4885 10.0377C24.356 10.0762 24.2334 10.143 24.1293 10.2336C24.0252 10.3241 23.942 10.4362 23.8855 10.5621C23.829 10.688 23.8005 10.8247 23.8021 10.9626V12.8664H17.139V11.0102C17.1433 10.7751 17.0645 10.5459 16.9165 10.3631C16.7685 10.1803 16.5608 10.0555 16.3299 10.0108C16.1935 9.99007 16.0542 9.99927 15.9217 10.0377C15.7892 10.0762 15.6666 10.143 15.5625 10.2336C15.4584 10.3241 15.3752 10.4362 15.3187 10.5621C15.2622 10.688 15.2337 10.8247 15.2353 10.9626V12.8664H10.9519C10.6994 12.8664 10.4573 12.9667 10.2788 13.1452C10.1003 13.3237 10 13.5658 10 13.8182V29.0481C10 29.3006 10.1003 29.5427 10.2788 29.7212C10.4573 29.8997 10.6994 30 10.9519 30H29.9892C30.2417 30 30.4838 29.8997 30.6623 29.7212C30.8408 29.5427 30.9411 29.3006 30.9411 29.0481V13.8182C30.9411 13.5658 30.8408 13.3237 30.6623 13.1452C30.4838 12.9667 30.2417 12.8664 29.9892 12.8664ZM29.0374 28.0963H11.9037V18.5776H29.0374V28.0963ZM29.0374 16.6739H11.9037V14.7701H29.0374V16.6739Z" fill="#808080" fill-opacity="0.5"/>
</svg>
