<svg width="30" height="30" viewBox="0 0 30 30" fill="none" xmlns="http://www.w3.org/2000/svg">
<path fill-rule="evenodd" clip-rule="evenodd" d="M15 3.4375C8.61421 3.4375 3.4375 8.61421 3.4375 15C3.4375 21.3857 8.61421 26.5625 15 26.5625C21.3857 26.5625 26.5625 21.3857 26.5625 15C26.5625 8.61421 21.3857 3.4375 15 3.4375ZM1.5625 15C1.5625 7.57868 7.57868 1.5625 15 1.5625C22.4214 1.5625 28.4375 7.57868 28.4375 15C28.4375 22.4214 22.4214 28.4375 15 28.4375C7.57868 28.4375 1.5625 22.4214 1.5625 15ZM15 6.5625C15.5177 6.5625 15.9375 6.98224 15.9375 7.5V7.89591C17.9755 8.26084 19.6875 9.79201 19.6875 11.875C19.6875 12.3928 19.2677 12.8125 18.75 12.8125C18.2323 12.8125 17.8125 12.3928 17.8125 11.875C17.8125 10.8197 16.7206 9.6875 15 9.6875C13.2794 9.6875 12.1875 10.8197 12.1875 11.875C12.1875 12.9304 13.2794 14.0625 15 14.0625C17.4215 14.0625 19.6875 15.7285 19.6875 18.125C19.6875 20.208 17.9755 21.7391 15.9375 22.1041V22.5C15.9375 23.0177 15.5177 23.4375 15 23.4375C14.4823 23.4375 14.0625 23.0177 14.0625 22.5V22.1041C12.0245 21.7391 10.3125 20.208 10.3125 18.125C10.3125 17.6073 10.7322 17.1875 11.25 17.1875C11.7678 17.1875 12.1875 17.6073 12.1875 18.125C12.1875 19.1804 13.2794 20.3125 15 20.3125C16.7206 20.3125 17.8125 19.1804 17.8125 18.125C17.8125 17.0696 16.7206 15.9375 15 15.9375C12.5785 15.9375 10.3125 14.2715 10.3125 11.875C10.3125 9.79201 12.0245 8.26084 14.0625 7.89591V7.5C14.0625 6.98224 14.4823 6.5625 15 6.5625Z" fill="#FAFDFF"/>
</svg>
