<svg width="20" height="20" viewBox="0 0 20 20" fill="none" xmlns="http://www.w3.org/2000/svg">
<path d="M18 0C19.1046 0 20 0.89543 20 2V18C20 19.1046 19.1046 20 18 20H2C0.89543 20 0 19.1046 0 18V2C0 0.89543 0.89543 0 2 0H18ZM4.25 7.36328V16H6.93652V7.36328H4.25ZM13.7773 7.14941C12.4705 7.14941 11.5942 7.86519 11.2354 8.54395H11.1992V7.36328H8.62207V16H11.3066V11.7275C11.3066 10.6012 11.5213 9.50991 12.9189 9.50977C14.2967 9.50977 14.3154 10.7981 14.3154 11.7998V16H17V11.2637C17 8.93816 16.4973 7.14952 13.7773 7.14941ZM5.56641 3C4.70126 3 4 3.701 4 4.56445C4.00022 5.42772 4.70048 6.12891 5.56641 6.12891C6.42958 6.12889 7.13161 5.4277 7.13184 4.56445C7.13184 3.70192 6.42972 3.00002 5.56641 3Z" fill="#8296AA"/>
</svg>
