<svg width="71" height="71" viewBox="0 0 71 71" fill="none" xmlns="http://www.w3.org/2000/svg">
<rect x="-0.354999" width="49.5" height="49.5" rx="24.75" transform="matrix(-0.709997 -0.709997 -0.709997 0.709997 70.393 35.248)" stroke="#8296AA" stroke-width="0.5"/>
<path d="M35.249 23.4509V46.9431L29.653 41.347C29.5549 41.249 29.396 41.249 29.298 41.347C29.2 41.4451 29.2 41.604 29.298 41.702L35.3225 47.7265L35.3617 47.7589C35.3673 47.7625 35.3737 47.7646 35.3794 47.7677C35.4153 47.7876 35.456 47.8001 35.5 47.8001C35.5437 47.8001 35.5839 47.7873 35.6196 47.7677C35.6401 47.7565 35.6602 47.7439 35.6775 47.7265L41.702 41.702L41.7344 41.6628C41.7987 41.5654 41.7878 41.4328 41.702 41.347C41.6162 41.2613 41.4837 41.2503 41.3863 41.3147L41.347 41.347L35.751 46.9431V23.4509C35.751 23.3123 35.6386 23.1999 35.5 23.1999C35.3614 23.1999 35.249 23.3123 35.249 23.4509Z" fill="#8296AA" stroke="#8296AA" stroke-width="0.5" stroke-linecap="round" stroke-linejoin="round"/>
</svg>
