<svg width="51" height="42" viewBox="0 0 51 42" fill="none" xmlns="http://www.w3.org/2000/svg">
<path fill-rule="evenodd" clip-rule="evenodd" d="M19.868 12.165V38.2342L3.49504 33.2935V2.71161L19.868 12.165ZM21.6682 12.2277L38.147 2.7125V33.2897L21.6682 38.2445V12.2277ZM50.9981 32.7517L49.0632 39.5222L47.1258 32.7517H47.1234V5.54188H50.9981V32.7517ZM41.6642 4.02504V35.3803L40.0505 35.8552L21.7986 41.65H19.7826L0 36.1735V4.02504L1.75762 2.63811V34.9421L19.868 40.0019H21.7176L39.909 34.1226V2.63811L41.6642 4.02504ZM50.9981 1.93756V4.02482H47.1258V1.93756C47.1258 0.866179 47.9911 0 49.0632 0C50.133 0 50.9981 0.866179 50.9981 1.93756Z" fill="white"/>
</svg>
