<svg width="61" height="43" viewBox="0 0 61 43" fill="none" xmlns="http://www.w3.org/2000/svg">
<path fill-rule="evenodd" clip-rule="evenodd" d="M60.9997 22.5745C60.9997 23.8549 60.4948 25.015 59.6791 25.854L59.6838 25.8587L53.315 32.2405L46.9379 25.8512C46.1222 25.0122 45.6182 23.8531 45.6182 22.5735C45.6182 20.0126 47.3616 17.937 49.8497 17.937C51.0938 17.937 52.4946 19.3005 53.3094 20.1395C54.1251 19.3014 55.6258 17.9388 56.869 17.9388C59.3571 17.9388 60.9997 20.0145 60.9997 22.5745ZM33.8485 42.6709C33.827 42.6709 33.8056 42.67 33.7832 42.6691C33.2988 42.6392 32.8984 42.2799 32.8163 41.8011L29.5768 22.9347L24.6696 32.0324C24.4549 32.4309 24.006 32.6456 23.5646 32.5662C23.1194 32.4869 22.776 32.1313 22.7116 31.6843L20.6285 17.1241L16.8169 25.6842C16.6489 26.0622 16.2737 26.3057 15.8603 26.3057H1.04715C0.468512 26.3057 0 25.8363 0 25.2586C0 24.68 0.468512 24.2114 1.04715 24.2114H15.1799L20.1936 12.9513C20.383 12.5248 20.8319 12.2756 21.2948 12.34C21.7568 12.4044 22.1208 12.7665 22.1871 13.2285L24.3346 28.2423L29.1736 19.2697C29.3855 18.8749 29.8242 18.6603 30.2656 18.733C30.7061 18.8049 31.0524 19.1493 31.128 19.5898L34.1275 37.0628L45.061 0.744857C45.1851 0.33141 45.551 0.0364913 45.9812 0.00289289C46.4124 -0.0288389 46.8193 0.202617 47.0069 0.591798L52.7597 12.5183C53.0108 13.0391 52.7924 13.6653 52.2716 13.9163C51.7508 14.1674 51.1246 13.949 50.8735 13.4282L46.2901 3.92644L34.8508 41.9253C34.7174 42.3704 34.3077 42.6709 33.8485 42.6709Z" fill="white"/>
</svg>
