<svg width="49" height="42" viewBox="0 0 49 42" fill="none" xmlns="http://www.w3.org/2000/svg">
<path fill-rule="evenodd" clip-rule="evenodd" d="M16.6023 39.8439C7.98784 37.1894 1.49183 30.3111 0.0307682 21.8953L0 21.6221C0 21.2873 0.270395 21.016 0.607923 21.016H48.3923C48.7289 21.016 48.9984 21.2873 48.9984 21.6221C48.9984 21.651 48.9956 21.6771 48.99 21.706C48.9881 21.7218 48.9853 21.7386 48.9825 21.7563C47.5914 30.0929 41.2688 36.933 32.8288 39.7003V41.1465C32.8288 41.1483 32.8306 41.1502 32.8306 41.1502L32.8288 41.1549C32.826 41.4831 32.5649 41.7488 32.2376 41.7553C32.2329 41.7553 32.2283 41.7572 32.2246 41.7572C32.2199 41.7572 32.2152 41.7553 32.2115 41.7553H17.2186C17.2139 41.7553 17.2083 41.7572 17.2037 41.7572C17.199 41.7572 17.1962 41.7553 17.1915 41.7553C16.8736 41.7488 16.6153 41.497 16.6023 41.181C16.6013 41.1716 16.5976 41.1614 16.5976 41.1502C16.5976 41.1409 16.6013 41.1306 16.6023 41.1222V39.8439ZM32.8148 0.621709C33.2493 0.0147186 34.1761 -0.180153 34.8912 0.185347C35.6045 0.552711 35.8357 1.33965 35.4031 1.95037C35.3481 2.03242 31.6791 7.38625 35.3015 11.3461C37.8628 14.1443 38.1257 16.8659 37.487 19.0365H34.3336C34.977 17.5662 35.1728 15.3899 32.9183 12.9228C28.0008 7.54848 32.618 0.90236 32.8148 0.621709ZM24.8279 19.0365C25.4703 17.568 25.6661 15.3909 23.4115 12.9228C18.4904 7.54848 23.1104 0.901428 23.309 0.621709C23.7416 0.0147186 24.6703 -0.17922 25.3826 0.185347C26.0978 0.553644 26.3262 1.33965 25.8954 1.94758C25.8376 2.03522 22.1715 7.38531 25.7957 11.3461C28.356 14.1443 28.6208 16.8659 27.9831 19.0365H24.8279ZM13.8004 0.621709C14.233 0.0137863 15.1608 -0.182017 15.8741 0.185347C16.5892 0.552711 16.8176 1.33965 16.3887 1.94758C16.3309 2.03242 12.6619 7.38625 16.2862 11.3461C18.8484 14.1452 19.1123 16.8669 18.4745 19.0365H15.3202C15.9626 17.568 16.1575 15.3909 13.902 12.9228C8.98364 7.54848 13.6009 0.90236 13.8004 0.621709Z" fill="white"/>
</svg>
