<svg width="10" height="18" viewBox="0 0 10 18" fill="none" xmlns="http://www.w3.org/2000/svg">
<path d="M1.09937 16.6199C0.367087 15.7008 0 14.3994 0 12.7188V12.1148H3.31983V12.6971C3.33398 13.5879 3.44156 14.2277 3.64256 14.6155C3.84451 15.0034 4.21065 15.1968 4.74194 15.1968C5.27417 15.1968 5.62993 14.9996 5.80923 14.6042C5.98947 14.2098 6.07912 13.5662 6.07912 12.6754C6.07912 11.7411 5.94228 11.0475 5.66956 10.5955C5.3959 10.1426 4.89292 9.90947 4.16064 9.89437C4.11723 9.88022 3.91623 9.87267 3.55669 9.87267V7.43706H4.09552C4.84291 7.43706 5.36004 7.23606 5.64786 6.83405C5.93473 6.43111 6.07912 5.77054 6.07912 4.85046C6.07912 4.10307 5.97437 3.55008 5.76676 3.19055C5.55821 2.83195 5.18735 2.65171 4.65606 2.65171C4.15309 2.65171 3.8077 2.84516 3.6218 3.23395C3.43496 3.6218 3.33398 4.1965 3.31983 4.95804V5.73373H0V4.78535C0 3.26226 0.405778 2.08457 1.21828 1.25036C2.02983 0.417102 3.17545 0 4.65606 0C6.16499 0 7.32948 0.402947 8.14858 1.20695C8.96769 2.01285 9.37724 3.16884 9.37724 4.67777C9.37724 5.68372 9.16869 6.5283 8.75159 7.21058C8.33449 7.89379 7.8032 8.32127 7.15679 8.49302C8.63646 9.03941 9.37724 10.4115 9.37724 12.6103C9.37724 14.2919 9.00355 15.6102 8.25616 16.5661C7.50878 17.522 6.32353 17.9995 4.69947 17.9995C3.03201 17.9995 1.83261 17.54 1.09937 16.6199Z" fill="white"/>
</svg>
